G04*
G04 #@! TF.GenerationSoftware,Altium Limited,Altium Designer,20.1.14 (287)*
G04*
G04 Layer_Color=128*
%FSLAX25Y25*%
%MOIN*%
G70*
G04*
G04 #@! TF.SameCoordinates,B8DE9612-172B-4E27-A0E0-44EA1AA92255*
G04*
G04*
G04 #@! TF.FilePolarity,Positive*
G04*
G01*
G75*
%ADD26C,0.00200*%
D26*
X-74267Y-28722D02*
X-73267D01*
X-73767Y-29222D02*
Y-28222D01*
X-46267Y-33222D02*
X-45267D01*
X-45767Y-33722D02*
Y-32722D01*
X4532Y-63157D02*
X5532D01*
X5032Y-63657D02*
Y-62657D01*
X-25267Y-72222D02*
X-24267D01*
X-24767Y-72722D02*
Y-71722D01*
X-33767Y-67722D02*
X-32767D01*
X-33267Y-68222D02*
Y-67222D01*
X-41767Y-62222D02*
X-40767D01*
X-41267Y-62722D02*
Y-61722D01*
X-50767Y-58722D02*
X-49767D01*
X-50267Y-59222D02*
Y-58222D01*
X2233Y-39722D02*
X3233D01*
X2733Y-40222D02*
Y-39222D01*
X-13767Y-28722D02*
X-12767D01*
X-13267Y-29222D02*
Y-28222D01*
X-27267Y-19722D02*
X-26267D01*
X-26767Y-20222D02*
Y-19222D01*
X-23767Y-47722D02*
X-22767D01*
X-23267Y-48222D02*
Y-47222D01*
X-21767Y-42722D02*
X-20767D01*
X-21267Y-43222D02*
Y-42222D01*
X-34767Y17278D02*
X-33767D01*
X-34267Y16778D02*
Y17778D01*
X-61767Y5778D02*
X-60767D01*
X-61267Y5278D02*
Y6278D01*
X43233Y-55222D02*
X44233D01*
X43733Y-55722D02*
Y-54722D01*
X24733Y-71722D02*
X25733D01*
X25233Y-72222D02*
Y-71222D01*
X15233Y-62722D02*
X16233D01*
X15733Y-63222D02*
Y-62222D01*
X-2267Y-54722D02*
X-1267D01*
X-1767Y-55222D02*
Y-54222D01*
X8233Y-51722D02*
X9233D01*
X8733Y-52222D02*
Y-51222D01*
X7233Y-34222D02*
X8233D01*
X7733Y-34722D02*
Y-33722D01*
X20233Y-45722D02*
X21233D01*
X20733Y-46222D02*
Y-45222D01*
X33233Y-52222D02*
X34233D01*
X33733Y-52722D02*
Y-51722D01*
X56233Y-53222D02*
X57233D01*
X56733Y-53722D02*
Y-52722D01*
X72233Y-35722D02*
X73233D01*
X72733Y-36222D02*
Y-35222D01*
X56733Y-39222D02*
X57733D01*
X57233Y-39722D02*
Y-38722D01*
X41233Y-40222D02*
X42233D01*
X41733Y-40722D02*
Y-39722D01*
X22733Y-33222D02*
X23733D01*
X23233Y-33722D02*
Y-32722D01*
X37233Y-25222D02*
X38233D01*
X37733Y-25722D02*
Y-24722D01*
X56233Y-23722D02*
X57233D01*
X56733Y-24222D02*
Y-23222D01*
X74233Y-21722D02*
X75233D01*
X74733Y-22222D02*
Y-21222D01*
X76233Y-1222D02*
X77233D01*
X76733Y-1722D02*
Y-722D01*
X64733Y-12222D02*
X65733D01*
X65233Y-12722D02*
Y-11722D01*
X48733Y-13722D02*
X49733D01*
X49233Y-14222D02*
Y-13222D01*
X33733Y-12722D02*
X34733D01*
X34233Y-13222D02*
Y-12222D01*
X38733Y278D02*
X39733D01*
X39233Y-222D02*
Y778D01*
X51233Y7778D02*
X52233D01*
X51733Y7278D02*
Y8278D01*
X70233Y7278D02*
X71233D01*
X70733Y6778D02*
Y7778D01*
X78733Y10778D02*
X79733D01*
X79233Y10278D02*
Y11278D01*
X73233Y24778D02*
X74233D01*
X73733Y24278D02*
Y25278D01*
X56733Y29778D02*
X57733D01*
X57233Y29278D02*
Y30278D01*
X44733Y21278D02*
X45733D01*
X45233Y20778D02*
Y21778D01*
X27733Y20278D02*
X28733D01*
X28233Y19778D02*
Y20778D01*
X5733Y32278D02*
X6733D01*
X6233Y31778D02*
Y32778D01*
X31733Y32278D02*
X32733D01*
X32233Y31778D02*
Y32778D01*
X21233Y40278D02*
X22233D01*
X21733Y39778D02*
Y40778D01*
X46233Y42278D02*
X47233D01*
X46733Y41778D02*
Y42778D01*
X61733Y48278D02*
X62733D01*
X62233Y47778D02*
Y48778D01*
X50733Y57278D02*
X51733D01*
X51233Y56778D02*
Y57778D01*
X33733D02*
X34733D01*
X34233Y57278D02*
Y58278D01*
X20733Y52778D02*
X21733D01*
X21233Y52278D02*
Y53278D01*
X10233Y64278D02*
X11233D01*
X10733Y63778D02*
Y64778D01*
X26233Y71278D02*
X27233D01*
X26733Y70778D02*
Y71778D01*
X8733Y76278D02*
X9733D01*
X9233Y75778D02*
Y76778D01*
X-7267Y72778D02*
X-6267D01*
X-6767Y72278D02*
Y73278D01*
X-22767Y68278D02*
X-21767D01*
X-22267Y67778D02*
Y68778D01*
X-5267Y55278D02*
X-4267D01*
X-4767Y54778D02*
Y55778D01*
X6233Y44778D02*
X7233D01*
X6733Y44278D02*
Y45278D01*
X-10767Y37778D02*
X-9767D01*
X-10267Y37278D02*
Y38278D01*
X-21267Y50278D02*
X-20267D01*
X-20767Y49778D02*
Y50778D01*
X-35267Y61778D02*
X-34267D01*
X-34767Y61278D02*
Y62278D01*
X-26267Y29778D02*
X-25267D01*
X-25767Y29278D02*
Y30278D01*
X-37767Y43778D02*
X-36767D01*
X-37267Y43278D02*
Y44278D01*
X-53767Y50778D02*
X-52767D01*
X-53267Y50278D02*
Y51278D01*
Y30778D02*
X-52267D01*
X-52767Y30278D02*
Y31278D01*
X-42767Y21778D02*
X-41767D01*
X-42267Y21278D02*
Y22278D01*
X-39767Y3778D02*
X-38767D01*
X-39267Y3278D02*
Y4278D01*
X-40267Y-15222D02*
X-39267D01*
X-39767Y-15722D02*
Y-14722D01*
X-48267Y-25722D02*
X-47267D01*
X-47767Y-26222D02*
Y-25222D01*
X-56267Y-12222D02*
X-55267D01*
X-55767Y-12722D02*
Y-11722D01*
X-49767Y-222D02*
X-48767D01*
X-49267Y-722D02*
Y278D01*
X-71767Y21278D02*
X-70767D01*
X-71267Y20778D02*
Y21778D01*
X-57767Y15778D02*
X-56767D01*
X-57267Y15278D02*
Y16278D01*
X-62767Y35778D02*
X-61767D01*
X-62267Y35278D02*
Y36278D01*
X-59552Y-22671D02*
X-58552D01*
X-59052Y-23171D02*
Y-22171D01*
X-65977Y-18905D02*
X-64977D01*
X-65477Y-19406D02*
Y-18406D01*
X-72401Y-15186D02*
X-71401D01*
X-71901Y-15686D02*
Y-14686D01*
X-9110Y-71463D02*
X-8110D01*
X-8609Y-71963D02*
Y-70963D01*
X-15877Y-67590D02*
X-14876D01*
X-15376Y-68090D02*
Y-67090D01*
X-22644Y-63678D02*
X-21644D01*
X-22143Y-64179D02*
Y-63178D01*
X-29411Y-59768D02*
X-28411D01*
X-28911Y-60268D02*
Y-59268D01*
X-36243Y-55854D02*
X-35243D01*
X-35743Y-56354D02*
Y-55354D01*
X-43072Y-51912D02*
X-42072D01*
X-42572Y-52412D02*
Y-51412D01*
X-49777Y-47960D02*
X-48777D01*
X-49277Y-48460D02*
Y-47460D01*
X-56591Y-44034D02*
X-55591D01*
X-56091Y-44534D02*
Y-43534D01*
X-83465Y0D02*
X-77953D01*
X-80709Y-2756D02*
Y2756D01*
X37598Y69896D02*
X43110D01*
X40354Y67140D02*
Y72652D01*
X37598Y-69896D02*
X43110D01*
X40354Y-72652D02*
Y-67140D01*
M02*
