G04*
G04 #@! TF.GenerationSoftware,Altium Limited,Altium Designer,20.1.14 (287)*
G04*
G04 Layer_Color=32896*
%FSLAX25Y25*%
%MOIN*%
G70*
G04*
G04 #@! TF.SameCoordinates,61D55F50-0F31-4996-AA49-5B610C7F314B*
G04*
G04*
G04 #@! TF.FilePolarity,Positive*
G04*
G01*
G75*
%ADD24C,0.01800*%
D24*
X61552Y16120D02*
X62852Y16468D01*
X64327Y16167D01*
X65977Y15214D01*
X66975Y14088D01*
X67324Y12787D01*
X66848Y11963D01*
X65959Y11376D01*
X65309Y11202D01*
X64246Y11266D01*
X61296Y11869D01*
X60234Y11933D01*
X59583Y11759D01*
X58695Y11172D01*
X57981Y9935D01*
X58329Y8635D01*
X59328Y7508D01*
X60978Y6556D01*
X62453Y6254D01*
X63753Y6603D01*
X58662Y15589D02*
X56281Y11467D01*
X55155Y10468D01*
X54092Y10531D01*
X52855Y11246D01*
X52269Y12134D01*
X51746Y14085D01*
X54126Y18208D02*
X50794Y12436D01*
X51859Y19517D02*
X46860Y10859D01*
X51144Y18280D02*
X50796Y19581D01*
X50209Y20470D01*
X48972Y21184D01*
X47910Y21247D01*
X46609Y20899D01*
X45483Y19900D01*
X45007Y19075D01*
X44705Y17600D01*
X45053Y16300D01*
X45640Y15411D01*
X46877Y14697D01*
X47939Y14633D01*
X49240Y14982D01*
X43627Y20971D02*
X38680Y23828D01*
X39156Y24652D01*
X40044Y25239D01*
X40694Y25413D01*
X41757Y25349D01*
X42994Y24635D01*
X43581Y23747D01*
X43929Y22446D01*
X43627Y20971D01*
X43151Y20147D01*
X42025Y19148D01*
X40724Y18799D01*
X39661Y18863D01*
X38425Y19577D01*
X37838Y20466D01*
X37489Y21766D01*
X38253Y27373D02*
X34920Y21600D01*
X36824Y24899D02*
X37126Y26374D01*
X36778Y27675D01*
X36191Y28563D01*
X34954Y29277D01*
X35837Y32616D02*
X30838Y23957D01*
X30065Y35948D02*
X32504Y26843D01*
X31633Y30095D02*
X25066Y27290D01*
X26461Y34181D02*
X23128Y28409D01*
X25508Y32532D02*
X24986Y34483D01*
X24399Y35371D01*
X23162Y36085D01*
X22100Y36149D01*
X20973Y35150D01*
X18593Y31027D01*
X17596Y39299D02*
X18183Y38410D01*
X18531Y37110D01*
X18229Y35635D01*
X17753Y34810D01*
X16627Y33811D01*
X15326Y33463D01*
X14264Y33527D01*
X13027Y34241D01*
X12440Y35129D01*
X12092Y36430D01*
X12393Y37905D01*
X12869Y38729D01*
X13996Y39728D01*
X15296Y40077D01*
X16359Y40013D01*
X17596Y39299D01*
X14067Y45184D02*
X9068Y36526D01*
X11687Y41061D02*
X11338Y42362D01*
X10752Y43250D01*
X9515Y43964D01*
X8452Y44028D01*
X7152Y43680D01*
X6025Y42681D01*
X5549Y41856D01*
X5247Y40381D01*
X5596Y39081D01*
X6182Y38192D01*
X7419Y37478D01*
X8482Y37414D01*
X9783Y37763D01*
X461Y53040D02*
X-4538Y44381D01*
X-9485Y47238D01*
X-12810Y57953D02*
X-11921Y58539D01*
X-10620Y58888D01*
X-9558Y58824D01*
X-7908Y57872D01*
X-7322Y56984D01*
X-6973Y55683D01*
X-7037Y54620D01*
X-7339Y53145D01*
X-8529Y51084D01*
X-9656Y50085D01*
X-10544Y49498D01*
X-11845Y49150D01*
X-12907Y49214D01*
X-14557Y50166D01*
X-15143Y51054D01*
X-15492Y52355D01*
X-15428Y53417D01*
X-14052Y61419D02*
X-19051Y52760D01*
X-14052Y61419D02*
X-16938Y63085D01*
X-18413Y63387D01*
X-19714Y63038D01*
X-20602Y62452D01*
X-21728Y61453D01*
X-22919Y59391D01*
X-23221Y57917D01*
X-23284Y56854D01*
X-22936Y55553D01*
X-21937Y54427D01*
X-19051Y52760D01*
M02*
