M48
;Layer_Color=9474304
;FILE_FORMAT=2:5
INCH,LZ
;TYPE=PLATED
T1F00S00C0.01000
T2F00S00C0.05512
%
T01
X-0050267Y-0058722
X-0049277Y-004796
X-0042572Y-0051912
X-0035743Y-0055854
X-0028911Y-0059768
X-0022143Y-0063678
X-0015376Y-006759
X-0008609Y-0071463
X-0024767Y-0072222
X-0033267Y-0067722
X-0041267Y-0062222
X-0023267Y-0047722
X-0021267Y-0042722
X-0013267Y-0028722
X-0026767Y-0019722
X-0039767Y-0015222
X-0047767Y-0025722
X-0045767Y-0033222
X-0056091Y-0044034
X-0059052Y-0022671
X-0065477Y-0018905
X-0055767Y-0012222
X-0049267Y-0000222
X-0039267Y0003778
X-0061267Y0005778
X0039233Y0000278
X0034233Y-0012722
X0037733Y-0025222
X0041733Y-0040222
X0057233Y-0039222
X0056733Y-0053222
X0043733Y-0055222
X0033733Y-0052222
X0020733Y-0045722
X0023233Y-0033222
X0007733Y-0034222
X0002733Y-0039722
X0008733Y-0051722
X-0001767Y-0054722
X0005032Y-0063157
X0015733Y-0062722
X0025233Y-0071722
X0056733Y-0023722
X0049233Y-0013722
X0065233Y-0012222
X0074733Y-0021722
X0072733Y-0035722
X0076733Y-0001222
X0070733Y0007278
X0079233Y0010778
X0051733Y0007778
X-0071901Y-0015186
X-0073767Y-0028722
X-0071267Y0021278
X-0057267Y0015778
X-0052767Y0030778
X-0062267Y0035778
X-0053267Y0050778
X-0037267Y0043778
X-0034767Y0061778
X-0022267Y0068278
X-0020767Y0050278
X-0004767Y0055278
X-0006767Y0072778
X0009233Y0076278
X0010733Y0064278
X0021233Y0052778
X0021733Y0040278
X0032233Y0032278
X0028233Y0020278
X0045233Y0021278
X0057233Y0029778
X0073733Y0024778
X0062233Y0048278
X0051233Y0057278
X0034233Y0057778
X0026733Y0071278
X0006733Y0044778
X0006233Y0032278
X-0010267Y0037778
X-0025767Y0029778
X-0034267Y0017278
X-0042267Y0021778
X0046733Y0042278
T02
X0040354Y-0069896
X-0080709Y0
X0040354Y0069896
M30
