G04*
G04 #@! TF.GenerationSoftware,Altium Limited,Altium Designer,20.1.14 (287)*
G04*
G04 Layer_Color=2752767*
%FSLAX25Y25*%
%MOIN*%
G70*
G04*
G04 #@! TF.SameCoordinates,61D55F50-0F31-4996-AA49-5B610C7F314B*
G04*
G04*
G04 #@! TF.FilePolarity,Positive*
G04*
G01*
G75*
%ADD26C,0.00200*%
%ADD27C,0.00267*%
D26*
X-74567Y-29522D02*
Y-27922D01*
X-72967D01*
Y-29522D01*
X-74567D01*
X-46567Y-34022D02*
Y-32422D01*
X-44967D01*
Y-34022D01*
X-46567D01*
X4232Y-63957D02*
Y-62357D01*
X5832D01*
Y-63957D01*
X4232D01*
X-25567Y-73022D02*
Y-71422D01*
X-23967D01*
Y-73022D01*
X-25567D01*
X-34067Y-68522D02*
Y-66922D01*
X-32467D01*
Y-68522D01*
X-34067D01*
X-42067Y-63022D02*
Y-61422D01*
X-40467D01*
Y-63022D01*
X-42067D01*
X-51067Y-59522D02*
Y-57922D01*
X-49467D01*
Y-59522D01*
X-51067D01*
X1933Y-40522D02*
Y-38922D01*
X3533D01*
Y-40522D01*
X1933D01*
X-14067Y-29522D02*
Y-27922D01*
X-12467D01*
Y-29522D01*
X-14067D01*
X-27567Y-20522D02*
Y-18922D01*
X-25967D01*
Y-20522D01*
X-27567D01*
X-24067Y-48522D02*
Y-46922D01*
X-22467D01*
Y-48522D01*
X-24067D01*
X-22067Y-43522D02*
Y-41922D01*
X-20467D01*
Y-43522D01*
X-22067D01*
X-35067Y16478D02*
Y18078D01*
X-33467D01*
Y16478D01*
X-35067D01*
X-62067Y4978D02*
Y6578D01*
X-60467D01*
Y4978D01*
X-62067D01*
X42933Y-56022D02*
Y-54422D01*
X44533D01*
Y-56022D01*
X42933D01*
X24433Y-72522D02*
Y-70922D01*
X26033D01*
Y-72522D01*
X24433D01*
X14933Y-63522D02*
Y-61922D01*
X16533D01*
Y-63522D01*
X14933D01*
X-2567Y-55522D02*
Y-53922D01*
X-967D01*
Y-55522D01*
X-2567D01*
X7933Y-52522D02*
Y-50922D01*
X9533D01*
Y-52522D01*
X7933D01*
X6933Y-35022D02*
Y-33422D01*
X8533D01*
Y-35022D01*
X6933D01*
X19933Y-46522D02*
Y-44922D01*
X21533D01*
Y-46522D01*
X19933D01*
X32933Y-53022D02*
Y-51422D01*
X34533D01*
Y-53022D01*
X32933D01*
X55933Y-54022D02*
Y-52422D01*
X57533D01*
Y-54022D01*
X55933D01*
X71933Y-36522D02*
Y-34922D01*
X73533D01*
Y-36522D01*
X71933D01*
X56433Y-40022D02*
Y-38422D01*
X58033D01*
Y-40022D01*
X56433D01*
X40933Y-41022D02*
Y-39422D01*
X42533D01*
Y-41022D01*
X40933D01*
X22433Y-34022D02*
Y-32422D01*
X24033D01*
Y-34022D01*
X22433D01*
X36933Y-26022D02*
Y-24422D01*
X38533D01*
Y-26022D01*
X36933D01*
X55933Y-24522D02*
Y-22922D01*
X57533D01*
Y-24522D01*
X55933D01*
X73933Y-22522D02*
Y-20922D01*
X75533D01*
Y-22522D01*
X73933D01*
X75933Y-2022D02*
Y-422D01*
X77533D01*
Y-2022D01*
X75933D01*
X64433Y-13022D02*
Y-11422D01*
X66033D01*
Y-13022D01*
X64433D01*
X48433Y-14522D02*
Y-12922D01*
X50033D01*
Y-14522D01*
X48433D01*
X33433Y-13522D02*
Y-11922D01*
X35033D01*
Y-13522D01*
X33433D01*
X38433Y-522D02*
Y1078D01*
X40033D01*
Y-522D01*
X38433D01*
X50933Y6978D02*
Y8578D01*
X52533D01*
Y6978D01*
X50933D01*
X69933Y6478D02*
Y8078D01*
X71533D01*
Y6478D01*
X69933D01*
X78433Y9978D02*
Y11578D01*
X80033D01*
Y9978D01*
X78433D01*
X72933Y23978D02*
Y25578D01*
X74533D01*
Y23978D01*
X72933D01*
X56433Y28978D02*
Y30578D01*
X58033D01*
Y28978D01*
X56433D01*
X44433Y20478D02*
Y22078D01*
X46033D01*
Y20478D01*
X44433D01*
X27433Y19478D02*
Y21078D01*
X29033D01*
Y19478D01*
X27433D01*
X5433Y31478D02*
Y33078D01*
X7033D01*
Y31478D01*
X5433D01*
X31433D02*
Y33078D01*
X33033D01*
Y31478D01*
X31433D01*
X20933Y39478D02*
Y41078D01*
X22533D01*
Y39478D01*
X20933D01*
X45933Y41478D02*
Y43078D01*
X47533D01*
Y41478D01*
X45933D01*
X61433Y47478D02*
Y49078D01*
X63033D01*
Y47478D01*
X61433D01*
X50433Y56478D02*
Y58078D01*
X52033D01*
Y56478D01*
X50433D01*
X33433Y56978D02*
Y58578D01*
X35033D01*
Y56978D01*
X33433D01*
X20433Y51978D02*
Y53578D01*
X22033D01*
Y51978D01*
X20433D01*
X9933Y63478D02*
Y65078D01*
X11533D01*
Y63478D01*
X9933D01*
X25933Y70478D02*
Y72078D01*
X27533D01*
Y70478D01*
X25933D01*
X8433Y75478D02*
Y77078D01*
X10033D01*
Y75478D01*
X8433D01*
X-7567Y71978D02*
Y73578D01*
X-5967D01*
Y71978D01*
X-7567D01*
X-23067Y67478D02*
Y69078D01*
X-21467D01*
Y67478D01*
X-23067D01*
X-5567Y54478D02*
Y56078D01*
X-3967D01*
Y54478D01*
X-5567D01*
X5933Y43978D02*
Y45578D01*
X7533D01*
Y43978D01*
X5933D01*
X-11067Y36978D02*
Y38578D01*
X-9467D01*
Y36978D01*
X-11067D01*
X-21567Y49478D02*
Y51078D01*
X-19967D01*
Y49478D01*
X-21567D01*
X-35567Y60978D02*
Y62578D01*
X-33967D01*
Y60978D01*
X-35567D01*
X-26567Y28978D02*
Y30578D01*
X-24967D01*
Y28978D01*
X-26567D01*
X-38067Y42978D02*
Y44578D01*
X-36467D01*
Y42978D01*
X-38067D01*
X-54067Y49978D02*
Y51578D01*
X-52467D01*
Y49978D01*
X-54067D01*
X-53567Y29978D02*
Y31578D01*
X-51967D01*
Y29978D01*
X-53567D01*
X-43067Y20978D02*
Y22578D01*
X-41467D01*
Y20978D01*
X-43067D01*
X-40067Y2978D02*
Y4578D01*
X-38467D01*
Y2978D01*
X-40067D01*
X-40567Y-16022D02*
Y-14422D01*
X-38967D01*
Y-16022D01*
X-40567D01*
X-48567Y-26522D02*
Y-24922D01*
X-46967D01*
Y-26522D01*
X-48567D01*
X-56567Y-13022D02*
Y-11422D01*
X-54967D01*
Y-13022D01*
X-56567D01*
X-50067Y-1022D02*
Y578D01*
X-48467D01*
Y-1022D01*
X-50067D01*
X-72067Y20478D02*
Y22078D01*
X-70467D01*
Y20478D01*
X-72067D01*
X-58067Y14978D02*
Y16578D01*
X-56467D01*
Y14978D01*
X-58067D01*
X-63067Y34978D02*
Y36578D01*
X-61467D01*
Y34978D01*
X-63067D01*
X-59852Y-23471D02*
Y-21871D01*
X-58252D01*
Y-23471D01*
X-59852D01*
X-66277Y-19705D02*
Y-18105D01*
X-64677D01*
Y-19705D01*
X-66277D01*
X-72701Y-15986D02*
Y-14386D01*
X-71101D01*
Y-15986D01*
X-72701D01*
X-9409Y-72263D02*
Y-70663D01*
X-7809D01*
Y-72263D01*
X-9409D01*
X-16176Y-68390D02*
Y-66790D01*
X-14577D01*
Y-68390D01*
X-16176D01*
X-22943Y-64478D02*
Y-62879D01*
X-21343D01*
Y-64478D01*
X-22943D01*
X-29711Y-60568D02*
Y-58968D01*
X-28111D01*
Y-60568D01*
X-29711D01*
X-36543Y-56654D02*
Y-55054D01*
X-34943D01*
Y-56654D01*
X-36543D01*
X-43372Y-52712D02*
Y-51112D01*
X-41772D01*
Y-52712D01*
X-43372D01*
X-50077Y-48759D02*
Y-47159D01*
X-48477D01*
Y-48759D01*
X-50077D01*
X-56892Y-44834D02*
Y-43234D01*
X-55291D01*
Y-44834D01*
X-56892D01*
D27*
X-79909Y0D02*
G03*
X-79909Y0I-800J0D01*
G01*
X41154Y69896D02*
G03*
X41154Y69896I-800J0D01*
G01*
Y-69896D02*
G03*
X41154Y-69896I-800J0D01*
G01*
M02*
