G04*
G04 #@! TF.GenerationSoftware,Altium Limited,Altium Designer,20.1.14 (287)*
G04*
G04 Layer_Physical_Order=2*
G04 Layer_Color=16711680*
%FSLAX25Y25*%
%MOIN*%
G70*
G04*
G04 #@! TF.SameCoordinates,B8DE9612-172B-4E27-A0E0-44EA1AA92255*
G04*
G04*
G04 #@! TF.FilePolarity,Positive*
G04*
G01*
G75*
%ADD16C,0.02362*%
%ADD18C,0.01800*%
%ADD19C,0.09055*%
G04:AMPARAMS|DCode=20|XSize=47.24mil|YSize=78.74mil|CornerRadius=11.81mil|HoleSize=0mil|Usage=FLASHONLY|Rotation=150.000|XOffset=0mil|YOffset=0mil|HoleType=Round|Shape=RoundedRectangle|*
%AMROUNDEDRECTD20*
21,1,0.04724,0.05512,0,0,150.0*
21,1,0.02362,0.07874,0,0,150.0*
1,1,0.02362,0.00355,0.02977*
1,1,0.02362,0.02401,0.01796*
1,1,0.02362,-0.00355,-0.02977*
1,1,0.02362,-0.02401,-0.01796*
%
%ADD20ROUNDEDRECTD20*%
G04:AMPARAMS|DCode=21|XSize=47.24mil|YSize=78.74mil|CornerRadius=11.81mil|HoleSize=0mil|Usage=FLASHONLY|Rotation=90.000|XOffset=0mil|YOffset=0mil|HoleType=Round|Shape=RoundedRectangle|*
%AMROUNDEDRECTD21*
21,1,0.04724,0.05512,0,0,90.0*
21,1,0.02362,0.07874,0,0,90.0*
1,1,0.02362,0.02756,0.01181*
1,1,0.02362,0.02756,-0.01181*
1,1,0.02362,-0.02756,-0.01181*
1,1,0.02362,-0.02756,0.01181*
%
%ADD21ROUNDEDRECTD21*%
G36*
X219Y82394D02*
X227Y82393D01*
X261Y82392D01*
X261Y82392D01*
X268Y82393D01*
X756Y82396D01*
X1590Y82369D01*
X1966Y82357D01*
X2577Y82337D01*
X5391Y82245D01*
X10758Y81716D01*
X16080Y80837D01*
X21332Y79613D01*
X26493Y78047D01*
X31531Y76151D01*
X35678Y72004D01*
X35359Y71234D01*
X35182Y69896D01*
X35359Y68557D01*
X35875Y67310D01*
X36697Y66239D01*
X37768Y65417D01*
X39016Y64900D01*
X40354Y64724D01*
X41693Y64900D01*
X42940Y65417D01*
X44011Y66239D01*
X44833Y67310D01*
X45350Y68557D01*
X45526Y69896D01*
X45350Y71234D01*
X45088Y71867D01*
X45488Y72207D01*
X47437Y70995D01*
X51979Y67740D01*
X56298Y64196D01*
X60376Y60376D01*
X64196Y56298D01*
X67740Y51979D01*
X70995Y47437D01*
X73945Y42692D01*
X76579Y37765D01*
X78885Y32675D01*
X80853Y27446D01*
X82476Y22099D01*
X83744Y16658D01*
X84654Y11145D01*
X85202Y5584D01*
X85385Y0D01*
X85202Y-5584D01*
X84654Y-11145D01*
X83744Y-16658D01*
X82476Y-22099D01*
X80853Y-27446D01*
X78885Y-32675D01*
X76579Y-37765D01*
X73945Y-42693D01*
X70995Y-47437D01*
X67740Y-51979D01*
X64196Y-56298D01*
X60376Y-60376D01*
X56298Y-64196D01*
X51979Y-67740D01*
X47437Y-70995D01*
X45488Y-72207D01*
X45088Y-71867D01*
X45350Y-71234D01*
X45526Y-69896D01*
X45350Y-68557D01*
X44833Y-67310D01*
X44011Y-66239D01*
X42940Y-65417D01*
X41693Y-64900D01*
X40354Y-64724D01*
X39016Y-64900D01*
X37768Y-65417D01*
X36697Y-66239D01*
X35875Y-67310D01*
X35359Y-68557D01*
X35182Y-69896D01*
X35359Y-71234D01*
X35678Y-72004D01*
X32352Y-75330D01*
X32000Y-75682D01*
X31999Y-75684D01*
X31623Y-75984D01*
X31471Y-76101D01*
X31028Y-76310D01*
Y-76310D01*
X30570Y-76513D01*
X26493Y-78047D01*
X21332Y-79613D01*
X20968Y-79698D01*
X20947Y-79702D01*
X20945Y-79703D01*
X16080Y-80837D01*
X10758Y-81716D01*
X9256Y-81864D01*
X9088Y-81879D01*
X9087Y-81875D01*
X8774Y-81906D01*
X8396Y-81940D01*
X8394Y-81940D01*
X8076Y-81980D01*
X8076Y-81980D01*
X5391Y-82245D01*
X1185Y-82382D01*
X1185Y-82382D01*
Y-82382D01*
X1184Y-82383D01*
X-723Y-82383D01*
X-1221Y-82381D01*
X-1714Y-82365D01*
X-5391Y-82245D01*
X-8601Y-81928D01*
X-9096Y-81880D01*
Y-81880D01*
X-10758Y-81716D01*
X-16080Y-80837D01*
X-21332Y-79613D01*
X-26493Y-78047D01*
X-28660Y-77231D01*
D01*
X-29127Y-77056D01*
X-31541Y-76147D01*
X-36454Y-73921D01*
X-41211Y-71379D01*
X-44689Y-69216D01*
X-45110Y-68954D01*
X-45110Y-68954D01*
X-45791Y-68531D01*
X-50175Y-65389D01*
X-54344Y-61967D01*
X-55008Y-61345D01*
X-55012Y-61340D01*
X-61340Y-55012D01*
X-61345Y-55008D01*
X-61967Y-54344D01*
X-65389Y-50175D01*
X-68531Y-45791D01*
X-69934Y-43534D01*
X-69957Y-43360D01*
X-69951Y-43330D01*
X-69951Y-39528D01*
X-69967Y-39446D01*
X-69818Y-37927D01*
X-69350Y-36387D01*
X-68592Y-34968D01*
X-67624Y-33788D01*
X-67554Y-33741D01*
X-60771Y-26958D01*
X-60315Y-27221D01*
X-59644Y-27449D01*
X-58937Y-27402D01*
X-58302Y-27089D01*
X-57835Y-26556D01*
X-55079Y-21783D01*
X-54851Y-21112D01*
X-54897Y-20405D01*
X-55211Y-19769D01*
X-55743Y-19302D01*
X-57789Y-18121D01*
X-58460Y-17893D01*
X-59167Y-17940D01*
X-59803Y-18253D01*
X-60270Y-18786D01*
X-63026Y-23559D01*
X-63253Y-24230D01*
X-63249Y-24300D01*
X-70122Y-31173D01*
X-70123Y-31172D01*
X-71327Y-32582D01*
X-72296Y-34163D01*
X-73006Y-35876D01*
X-73439Y-37679D01*
X-73584Y-39528D01*
X-73584D01*
X-73583Y-40028D01*
X-73583Y-42310D01*
X-74083Y-42435D01*
X-76579Y-37765D01*
X-78885Y-32675D01*
X-80853Y-27446D01*
X-82476Y-22099D01*
X-83744Y-16658D01*
X-84654Y-11145D01*
X-85202Y-5584D01*
X-85277Y-3291D01*
X-84783Y-3114D01*
X-84366Y-3657D01*
X-83295Y-4479D01*
X-82047Y-4996D01*
X-80709Y-5172D01*
X-79872Y-5062D01*
X-74683Y-14010D01*
X-75875Y-16074D01*
X-76103Y-16745D01*
X-76056Y-17452D01*
X-75743Y-18088D01*
X-75210Y-18555D01*
X-73164Y-19736D01*
X-72493Y-19964D01*
X-71786Y-19918D01*
X-71151Y-19604D01*
X-70684Y-19072D01*
X-67928Y-14298D01*
X-67700Y-13627D01*
X-67746Y-12920D01*
X-68060Y-12285D01*
X-68592Y-11817D01*
X-70638Y-10636D01*
X-71309Y-10409D01*
X-72016Y-10455D01*
X-72428Y-10658D01*
X-76731Y-3239D01*
X-76230Y-2586D01*
X-75713Y-1339D01*
X-75537Y0D01*
X-75713Y1339D01*
X-76230Y2586D01*
X-77052Y3657D01*
X-78123Y4479D01*
X-79370Y4996D01*
X-80709Y5172D01*
X-82047Y4996D01*
X-83295Y4479D01*
X-84366Y3657D01*
X-84783Y3114D01*
X-85277Y3291D01*
X-85202Y5584D01*
X-84654Y11145D01*
X-84029Y14934D01*
X-83525Y14916D01*
X-82967Y13873D01*
X-82490Y13292D01*
X-82204Y12939D01*
X-82179Y12902D01*
X-82123Y12844D01*
X-82122Y12845D01*
X-81834Y12557D01*
X-78450Y9173D01*
X-66782Y-6553D01*
Y-7580D01*
X-66785Y-7646D01*
X-66785Y-7646D01*
X-66785Y-7646D01*
X-67155Y-15818D01*
X-69451Y-19794D01*
X-69678Y-20465D01*
X-69632Y-21172D01*
X-69319Y-21807D01*
X-68786Y-22274D01*
X-66740Y-23455D01*
X-66069Y-23683D01*
X-65362Y-23637D01*
X-64727Y-23324D01*
X-64260Y-22791D01*
X-61504Y-18017D01*
X-61276Y-17346D01*
X-61322Y-16639D01*
X-61636Y-16004D01*
X-62168Y-15537D01*
X-63473Y-14784D01*
X-63157Y-7811D01*
X-63152Y-7704D01*
X-63158Y-7662D01*
X-63150Y-7622D01*
Y-5953D01*
X-63194Y-5735D01*
X-63205Y-5512D01*
X-63262Y-5390D01*
X-63288Y-5258D01*
X-63412Y-5073D01*
X-63508Y-4871D01*
X-75613Y11445D01*
X-75713Y11535D01*
X-75788Y11647D01*
X-79248Y15107D01*
X-79554Y15413D01*
X-79602Y15458D01*
X-79611Y15471D01*
X-79626Y15481D01*
X-80059Y16046D01*
X-80351Y16750D01*
X-80450Y17505D01*
X-80430Y17664D01*
X-80356Y18146D01*
X-80244Y18626D01*
X-79752Y20734D01*
X-79613Y21332D01*
X-78047Y26493D01*
X-76147Y31541D01*
X-73921Y36454D01*
X-71379Y41211D01*
X-70303Y42940D01*
X-68531Y45791D01*
X-65389Y50175D01*
X-61967Y54344D01*
X-58280Y58280D01*
X-54472Y61848D01*
X-54347Y61931D01*
X-54298Y62006D01*
X-50175Y65389D01*
X-45791Y68531D01*
X-41211Y71379D01*
X-37687Y73262D01*
X-36454Y73921D01*
X-31541Y76147D01*
X-26493Y78047D01*
X-21332Y79613D01*
X-16080Y80837D01*
X-10758Y81716D01*
X-5391Y82245D01*
X-244Y82413D01*
X219Y82394D01*
D02*
G37*
%LPC*%
G36*
X10233Y77895D02*
Y77278D01*
X10850D01*
X10603Y77648D01*
X10233Y77895D01*
D02*
G37*
G36*
X8233D02*
X7863Y77648D01*
X7616Y77278D01*
X8233D01*
Y77895D01*
D02*
G37*
G36*
X10850Y75278D02*
X10233D01*
Y74661D01*
X10603Y74908D01*
X10850Y75278D01*
D02*
G37*
G36*
X8233D02*
X7616D01*
X7863Y74908D01*
X8233Y74661D01*
Y75278D01*
D02*
G37*
G36*
X-5767Y74395D02*
Y73778D01*
X-5150D01*
X-5397Y74147D01*
X-5767Y74395D01*
D02*
G37*
G36*
X-7767D02*
X-8137Y74147D01*
X-8384Y73778D01*
X-7767D01*
Y74395D01*
D02*
G37*
G36*
X27733Y72895D02*
Y72278D01*
X28350D01*
X28103Y72648D01*
X27733Y72895D01*
D02*
G37*
G36*
X25733D02*
X25363Y72648D01*
X25116Y72278D01*
X25733D01*
Y72895D01*
D02*
G37*
G36*
X-5150Y71778D02*
X-5767D01*
Y71161D01*
X-5397Y71408D01*
X-5150Y71778D01*
D02*
G37*
G36*
X-7767D02*
X-8384D01*
X-8137Y71408D01*
X-7767Y71161D01*
Y71778D01*
D02*
G37*
G36*
X28350Y70278D02*
X27733D01*
Y69661D01*
X28103Y69908D01*
X28350Y70278D01*
D02*
G37*
G36*
X25733D02*
X25116D01*
X25363Y69908D01*
X25733Y69661D01*
Y70278D01*
D02*
G37*
G36*
X-21267Y69895D02*
Y69278D01*
X-20650D01*
X-20897Y69648D01*
X-21267Y69895D01*
D02*
G37*
G36*
X-23267D02*
X-23637Y69648D01*
X-23884Y69278D01*
X-23267D01*
Y69895D01*
D02*
G37*
G36*
X-20650Y67278D02*
X-21267D01*
Y66661D01*
X-20897Y66908D01*
X-20650Y67278D01*
D02*
G37*
G36*
X-23267D02*
X-23884D01*
X-23637Y66908D01*
X-23267Y66661D01*
Y67278D01*
D02*
G37*
G36*
X11733Y65895D02*
Y65278D01*
X12350D01*
X12103Y65648D01*
X11733Y65895D01*
D02*
G37*
G36*
X9733D02*
X9363Y65648D01*
X9116Y65278D01*
X9733D01*
Y65895D01*
D02*
G37*
G36*
X-33767Y63395D02*
Y62778D01*
X-33150D01*
X-33397Y63147D01*
X-33767Y63395D01*
D02*
G37*
G36*
X-35767D02*
X-36137Y63147D01*
X-36384Y62778D01*
X-35767D01*
Y63395D01*
D02*
G37*
G36*
X12350Y63278D02*
X11733D01*
Y62661D01*
X12103Y62908D01*
X12350Y63278D01*
D02*
G37*
G36*
X9733D02*
X9116D01*
X9363Y62908D01*
X9733Y62661D01*
Y63278D01*
D02*
G37*
G36*
X-33150Y60778D02*
X-33767D01*
Y60161D01*
X-33397Y60408D01*
X-33150Y60778D01*
D02*
G37*
G36*
X-35767D02*
X-36384D01*
X-36137Y60408D01*
X-35767Y60161D01*
Y60778D01*
D02*
G37*
G36*
X35233Y59395D02*
Y58778D01*
X35850D01*
X35603Y59148D01*
X35233Y59395D01*
D02*
G37*
G36*
X33233D02*
X32863Y59148D01*
X32616Y58778D01*
X33233D01*
Y59395D01*
D02*
G37*
G36*
X52233Y58895D02*
Y58278D01*
X52850D01*
X52603Y58648D01*
X52233Y58895D01*
D02*
G37*
G36*
X50233D02*
X49863Y58648D01*
X49616Y58278D01*
X50233D01*
Y58895D01*
D02*
G37*
G36*
X-3767Y56895D02*
Y56278D01*
X-3150D01*
X-3397Y56647D01*
X-3767Y56895D01*
D02*
G37*
G36*
X-5767D02*
X-6137Y56647D01*
X-6384Y56278D01*
X-5767D01*
Y56895D01*
D02*
G37*
G36*
X35850Y56778D02*
X35233D01*
Y56161D01*
X35603Y56408D01*
X35850Y56778D01*
D02*
G37*
G36*
X33233D02*
X32616D01*
X32863Y56408D01*
X33233Y56161D01*
Y56778D01*
D02*
G37*
G36*
X52850Y56278D02*
X52233D01*
Y55661D01*
X52603Y55908D01*
X52850Y56278D01*
D02*
G37*
G36*
X50233D02*
X49616D01*
X49863Y55908D01*
X50233Y55661D01*
Y56278D01*
D02*
G37*
G36*
X22233Y54395D02*
Y53778D01*
X22850D01*
X22603Y54147D01*
X22233Y54395D01*
D02*
G37*
G36*
X20233D02*
X19863Y54147D01*
X19616Y53778D01*
X20233D01*
Y54395D01*
D02*
G37*
G36*
X-3150Y54278D02*
X-3767D01*
Y53661D01*
X-3397Y53908D01*
X-3150Y54278D01*
D02*
G37*
G36*
X-5767D02*
X-6384D01*
X-6137Y53908D01*
X-5767Y53661D01*
Y54278D01*
D02*
G37*
G36*
X-52267Y52395D02*
Y51778D01*
X-51650D01*
X-51897Y52148D01*
X-52267Y52395D01*
D02*
G37*
G36*
X-54267D02*
X-54637Y52148D01*
X-54884Y51778D01*
X-54267D01*
Y52395D01*
D02*
G37*
G36*
X-19767Y51895D02*
Y51278D01*
X-19150D01*
X-19397Y51648D01*
X-19767Y51895D01*
D02*
G37*
G36*
X-21767D02*
X-22137Y51648D01*
X-22384Y51278D01*
X-21767D01*
Y51895D01*
D02*
G37*
G36*
X22850Y51778D02*
X22233D01*
Y51161D01*
X22603Y51408D01*
X22850Y51778D01*
D02*
G37*
G36*
X20233D02*
X19616D01*
X19863Y51408D01*
X20233Y51161D01*
Y51778D01*
D02*
G37*
G36*
X63233Y49895D02*
Y49278D01*
X63850D01*
X63603Y49648D01*
X63233Y49895D01*
D02*
G37*
G36*
X61233D02*
X60863Y49648D01*
X60616Y49278D01*
X61233D01*
Y49895D01*
D02*
G37*
G36*
X-51650Y49778D02*
X-52267D01*
Y49161D01*
X-51897Y49408D01*
X-51650Y49778D01*
D02*
G37*
G36*
X-54267D02*
X-54884D01*
X-54637Y49408D01*
X-54267Y49161D01*
Y49778D01*
D02*
G37*
G36*
X-19150Y49278D02*
X-19767D01*
Y48661D01*
X-19397Y48908D01*
X-19150Y49278D01*
D02*
G37*
G36*
X-21767D02*
X-22384D01*
X-22137Y48908D01*
X-21767Y48661D01*
Y49278D01*
D02*
G37*
G36*
X63850Y47278D02*
X63233D01*
Y46661D01*
X63603Y46908D01*
X63850Y47278D01*
D02*
G37*
G36*
X61233D02*
X60616D01*
X60863Y46908D01*
X61233Y46661D01*
Y47278D01*
D02*
G37*
G36*
X7733Y46395D02*
Y45778D01*
X8350D01*
X8103Y46148D01*
X7733Y46395D01*
D02*
G37*
G36*
X5733D02*
X5363Y46148D01*
X5116Y45778D01*
X5733D01*
Y46395D01*
D02*
G37*
G36*
X-36267Y45395D02*
Y44778D01*
X-35650D01*
X-35897Y45147D01*
X-36267Y45395D01*
D02*
G37*
G36*
X-38267D02*
X-38637Y45147D01*
X-38884Y44778D01*
X-38267D01*
Y45395D01*
D02*
G37*
G36*
X47733Y43895D02*
Y43278D01*
X48350D01*
X48103Y43648D01*
X47733Y43895D01*
D02*
G37*
G36*
X45733D02*
X45363Y43648D01*
X45116Y43278D01*
X45733D01*
Y43895D01*
D02*
G37*
G36*
X8350Y43778D02*
X7733D01*
Y43161D01*
X8103Y43408D01*
X8350Y43778D01*
D02*
G37*
G36*
X5733D02*
X5116D01*
X5363Y43408D01*
X5733Y43161D01*
Y43778D01*
D02*
G37*
G36*
X-35650Y42778D02*
X-36267D01*
Y42161D01*
X-35897Y42408D01*
X-35650Y42778D01*
D02*
G37*
G36*
X-38267D02*
X-38884D01*
X-38637Y42408D01*
X-38267Y42161D01*
Y42778D01*
D02*
G37*
G36*
X22733Y41895D02*
Y41278D01*
X23350D01*
X23103Y41647D01*
X22733Y41895D01*
D02*
G37*
G36*
X20733D02*
X20363Y41647D01*
X20116Y41278D01*
X20733D01*
Y41895D01*
D02*
G37*
G36*
X48350Y41278D02*
X47733D01*
Y40661D01*
X48103Y40908D01*
X48350Y41278D01*
D02*
G37*
G36*
X45733D02*
X45116D01*
X45363Y40908D01*
X45733Y40661D01*
Y41278D01*
D02*
G37*
G36*
X-9267Y39395D02*
Y38778D01*
X-8650D01*
X-8897Y39147D01*
X-9267Y39395D01*
D02*
G37*
G36*
X-11267D02*
X-11637Y39147D01*
X-11884Y38778D01*
X-11267D01*
Y39395D01*
D02*
G37*
G36*
X23350Y39278D02*
X22733D01*
Y38661D01*
X23103Y38908D01*
X23350Y39278D01*
D02*
G37*
G36*
X20733D02*
X20116D01*
X20363Y38908D01*
X20733Y38661D01*
Y39278D01*
D02*
G37*
G36*
X-61267Y37395D02*
Y36778D01*
X-60650D01*
X-60897Y37148D01*
X-61267Y37395D01*
D02*
G37*
G36*
X-63267D02*
X-63637Y37148D01*
X-63884Y36778D01*
X-63267D01*
Y37395D01*
D02*
G37*
G36*
X-8650Y36778D02*
X-9267D01*
Y36161D01*
X-8897Y36408D01*
X-8650Y36778D01*
D02*
G37*
G36*
X-11267D02*
X-11884D01*
X-11637Y36408D01*
X-11267Y36161D01*
Y36778D01*
D02*
G37*
G36*
X-60650Y34778D02*
X-61267D01*
Y34161D01*
X-60897Y34408D01*
X-60650Y34778D01*
D02*
G37*
G36*
X-63267D02*
X-63884D01*
X-63637Y34408D01*
X-63267Y34161D01*
Y34778D01*
D02*
G37*
G36*
X33233Y33895D02*
Y33278D01*
X33850D01*
X33603Y33648D01*
X33233Y33895D01*
D02*
G37*
G36*
X31233D02*
X30863Y33648D01*
X30616Y33278D01*
X31233D01*
Y33895D01*
D02*
G37*
G36*
X7233D02*
Y33278D01*
X7850D01*
X7603Y33648D01*
X7233Y33895D01*
D02*
G37*
G36*
X5233D02*
X4863Y33648D01*
X4616Y33278D01*
X5233D01*
Y33895D01*
D02*
G37*
G36*
X-51767Y32395D02*
Y31778D01*
X-51150D01*
X-51397Y32147D01*
X-51767Y32395D01*
D02*
G37*
G36*
X-53767D02*
X-54137Y32147D01*
X-54384Y31778D01*
X-53767D01*
Y32395D01*
D02*
G37*
G36*
X58233Y31395D02*
Y30778D01*
X58850D01*
X58603Y31148D01*
X58233Y31395D01*
D02*
G37*
G36*
X56233D02*
X55863Y31148D01*
X55616Y30778D01*
X56233D01*
Y31395D01*
D02*
G37*
G36*
X-24767D02*
Y30778D01*
X-24150D01*
X-24397Y31148D01*
X-24767Y31395D01*
D02*
G37*
G36*
X-26767D02*
X-27137Y31148D01*
X-27384Y30778D01*
X-26767D01*
Y31395D01*
D02*
G37*
G36*
X33850Y31278D02*
X33233D01*
Y30661D01*
X33603Y30908D01*
X33850Y31278D01*
D02*
G37*
G36*
X31233D02*
X30616D01*
X30863Y30908D01*
X31233Y30661D01*
Y31278D01*
D02*
G37*
G36*
X7850D02*
X7233D01*
Y30661D01*
X7603Y30908D01*
X7850Y31278D01*
D02*
G37*
G36*
X5233D02*
X4616D01*
X4863Y30908D01*
X5233Y30661D01*
Y31278D01*
D02*
G37*
G36*
X-51150Y29778D02*
X-51767D01*
Y29161D01*
X-51397Y29408D01*
X-51150Y29778D01*
D02*
G37*
G36*
X-53767D02*
X-54384D01*
X-54137Y29408D01*
X-53767Y29161D01*
Y29778D01*
D02*
G37*
G36*
X58850Y28778D02*
X58233D01*
Y28161D01*
X58603Y28408D01*
X58850Y28778D01*
D02*
G37*
G36*
X56233D02*
X55616D01*
X55863Y28408D01*
X56233Y28161D01*
Y28778D01*
D02*
G37*
G36*
X-24150D02*
X-24767D01*
Y28161D01*
X-24397Y28408D01*
X-24150Y28778D01*
D02*
G37*
G36*
X-26767D02*
X-27384D01*
X-27137Y28408D01*
X-26767Y28161D01*
Y28778D01*
D02*
G37*
G36*
X74733Y26395D02*
Y25778D01*
X75350D01*
X75103Y26147D01*
X74733Y26395D01*
D02*
G37*
G36*
X72733D02*
X72363Y26147D01*
X72116Y25778D01*
X72733D01*
Y26395D01*
D02*
G37*
G36*
X75350Y23778D02*
X74733D01*
Y23161D01*
X75103Y23408D01*
X75350Y23778D01*
D02*
G37*
G36*
X72733D02*
X72116D01*
X72363Y23408D01*
X72733Y23161D01*
Y23778D01*
D02*
G37*
G36*
X-41267Y23395D02*
Y22778D01*
X-40650D01*
X-40897Y23147D01*
X-41267Y23395D01*
D02*
G37*
G36*
X-43267D02*
X-43637Y23147D01*
X-43884Y22778D01*
X-43267D01*
Y23395D01*
D02*
G37*
G36*
X46233Y22895D02*
Y22278D01*
X46850D01*
X46603Y22648D01*
X46233Y22895D01*
D02*
G37*
G36*
X44233D02*
X43863Y22648D01*
X43616Y22278D01*
X44233D01*
Y22895D01*
D02*
G37*
G36*
X-70267D02*
Y22278D01*
X-69650D01*
X-69897Y22648D01*
X-70267Y22895D01*
D02*
G37*
G36*
X-72267D02*
X-72637Y22648D01*
X-72884Y22278D01*
X-72267D01*
Y22895D01*
D02*
G37*
G36*
X29233Y21895D02*
Y21278D01*
X29850D01*
X29603Y21647D01*
X29233Y21895D01*
D02*
G37*
G36*
X27233D02*
X26863Y21647D01*
X26616Y21278D01*
X27233D01*
Y21895D01*
D02*
G37*
G36*
X-40650Y20778D02*
X-41267D01*
Y20161D01*
X-40897Y20408D01*
X-40650Y20778D01*
D02*
G37*
G36*
X-43267D02*
X-43884D01*
X-43637Y20408D01*
X-43267Y20161D01*
Y20778D01*
D02*
G37*
G36*
X-69650Y20278D02*
X-70267D01*
Y19661D01*
X-69897Y19908D01*
X-69650Y20278D01*
D02*
G37*
G36*
X-72267D02*
X-72884D01*
X-72637Y19908D01*
X-72267Y19661D01*
Y20278D01*
D02*
G37*
G36*
X46850D02*
X46233D01*
Y19661D01*
X46603Y19908D01*
X46850Y20278D01*
D02*
G37*
G36*
X44233D02*
X43616D01*
X43863Y19908D01*
X44233Y19661D01*
Y20278D01*
D02*
G37*
G36*
X29850Y19278D02*
X29233D01*
Y18661D01*
X29603Y18908D01*
X29850Y19278D01*
D02*
G37*
G36*
X27233D02*
X26616D01*
X26863Y18908D01*
X27233Y18661D01*
Y19278D01*
D02*
G37*
G36*
X-33267Y18895D02*
Y18278D01*
X-32650D01*
X-32897Y18647D01*
X-33267Y18895D01*
D02*
G37*
G36*
X-35267D02*
X-35637Y18647D01*
X-35884Y18278D01*
X-35267D01*
Y18895D01*
D02*
G37*
G36*
X-56267Y17395D02*
Y16778D01*
X-55650D01*
X-55897Y17147D01*
X-56267Y17395D01*
D02*
G37*
G36*
X-58267D02*
X-58637Y17147D01*
X-58884Y16778D01*
X-58267D01*
Y17395D01*
D02*
G37*
G36*
X-32650Y16278D02*
X-33267D01*
Y15661D01*
X-32897Y15908D01*
X-32650Y16278D01*
D02*
G37*
G36*
X-35267D02*
X-35884D01*
X-35637Y15908D01*
X-35267Y15661D01*
Y16278D01*
D02*
G37*
G36*
X-55650Y14778D02*
X-56267D01*
Y14161D01*
X-55897Y14408D01*
X-55650Y14778D01*
D02*
G37*
G36*
X-58267D02*
X-58884D01*
X-58637Y14408D01*
X-58267Y14161D01*
Y14778D01*
D02*
G37*
G36*
X80233Y12395D02*
Y11778D01*
X80850D01*
X80603Y12148D01*
X80233Y12395D01*
D02*
G37*
G36*
X78233D02*
X77863Y12148D01*
X77616Y11778D01*
X78233D01*
Y12395D01*
D02*
G37*
G36*
X80850Y9778D02*
X80233D01*
Y9161D01*
X80603Y9408D01*
X80850Y9778D01*
D02*
G37*
G36*
X78233D02*
X77616D01*
X77863Y9408D01*
X78233Y9161D01*
Y9778D01*
D02*
G37*
G36*
X52733Y9395D02*
Y8778D01*
X53350D01*
X53103Y9148D01*
X52733Y9395D01*
D02*
G37*
G36*
X50733D02*
X50363Y9148D01*
X50116Y8778D01*
X50733D01*
Y9395D01*
D02*
G37*
G36*
X71733Y8895D02*
Y8278D01*
X72350D01*
X72103Y8647D01*
X71733Y8895D01*
D02*
G37*
G36*
X69733D02*
X69363Y8647D01*
X69116Y8278D01*
X69733D01*
Y8895D01*
D02*
G37*
G36*
X-60267Y7395D02*
Y6778D01*
X-59650D01*
X-59897Y7147D01*
X-60267Y7395D01*
D02*
G37*
G36*
X-62267D02*
X-62637Y7147D01*
X-62884Y6778D01*
X-62267D01*
Y7395D01*
D02*
G37*
G36*
X53350Y6778D02*
X52733D01*
Y6161D01*
X53103Y6408D01*
X53350Y6778D01*
D02*
G37*
G36*
X50733D02*
X50116D01*
X50363Y6408D01*
X50733Y6161D01*
Y6778D01*
D02*
G37*
G36*
X72350Y6278D02*
X71733D01*
Y5661D01*
X72103Y5908D01*
X72350Y6278D01*
D02*
G37*
G36*
X69733D02*
X69116D01*
X69363Y5908D01*
X69733Y5661D01*
Y6278D01*
D02*
G37*
G36*
X-38267Y5395D02*
Y4778D01*
X-37650D01*
X-37897Y5147D01*
X-38267Y5395D01*
D02*
G37*
G36*
X-40267D02*
X-40637Y5147D01*
X-40884Y4778D01*
X-40267D01*
Y5395D01*
D02*
G37*
G36*
X-59650Y4778D02*
X-60267D01*
Y4161D01*
X-59897Y4408D01*
X-59650Y4778D01*
D02*
G37*
G36*
X-62267D02*
X-62884D01*
X-62637Y4408D01*
X-62267Y4161D01*
Y4778D01*
D02*
G37*
G36*
X-37650Y2778D02*
X-38267D01*
Y2161D01*
X-37897Y2408D01*
X-37650Y2778D01*
D02*
G37*
G36*
X-40267D02*
X-40884D01*
X-40637Y2408D01*
X-40267Y2161D01*
Y2778D01*
D02*
G37*
G36*
X40233Y1895D02*
Y1278D01*
X40850D01*
X40603Y1647D01*
X40233Y1895D01*
D02*
G37*
G36*
X38233D02*
X37863Y1647D01*
X37616Y1278D01*
X38233D01*
Y1895D01*
D02*
G37*
G36*
X-48267Y1395D02*
Y778D01*
X-47650D01*
X-47897Y1147D01*
X-48267Y1395D01*
D02*
G37*
G36*
X-50267D02*
X-50637Y1147D01*
X-50884Y778D01*
X-50267D01*
Y1395D01*
D02*
G37*
G36*
X77733Y395D02*
Y-222D01*
X78350D01*
X78103Y148D01*
X77733Y395D01*
D02*
G37*
G36*
X75733D02*
X75363Y148D01*
X75116Y-222D01*
X75733D01*
Y395D01*
D02*
G37*
G36*
X40850Y-722D02*
X40233D01*
Y-1339D01*
X40603Y-1092D01*
X40850Y-722D01*
D02*
G37*
G36*
X38233D02*
X37616D01*
X37863Y-1092D01*
X38233Y-1339D01*
Y-722D01*
D02*
G37*
G36*
X-47650Y-1222D02*
X-48267D01*
Y-1839D01*
X-47897Y-1592D01*
X-47650Y-1222D01*
D02*
G37*
G36*
X-50267D02*
X-50884D01*
X-50637Y-1592D01*
X-50267Y-1839D01*
Y-1222D01*
D02*
G37*
G36*
X78350Y-2222D02*
X77733D01*
Y-2839D01*
X78103Y-2592D01*
X78350Y-2222D01*
D02*
G37*
G36*
X75733D02*
X75116D01*
X75363Y-2592D01*
X75733Y-2839D01*
Y-2222D01*
D02*
G37*
G36*
X0Y10132D02*
X-1977Y9937D01*
X-3877Y9361D01*
X-5629Y8424D01*
X-7164Y7164D01*
X-8424Y5629D01*
X-9361Y3877D01*
X-9937Y1977D01*
X-10132Y0D01*
X-9937Y-1977D01*
X-9361Y-3877D01*
X-8424Y-5629D01*
X-7164Y-7164D01*
X-5629Y-8424D01*
X-3877Y-9361D01*
X-1977Y-9937D01*
X0Y-10132D01*
X1977Y-9937D01*
X3877Y-9361D01*
X5629Y-8424D01*
X7164Y-7164D01*
X8424Y-5629D01*
X9361Y-3877D01*
X9937Y-1977D01*
X10132Y0D01*
X9937Y1977D01*
X9361Y3877D01*
X8424Y5629D01*
X7164Y7164D01*
X5629Y8424D01*
X3877Y9361D01*
X1977Y9937D01*
X0Y10132D01*
D02*
G37*
G36*
X66233Y-10605D02*
Y-11222D01*
X66850D01*
X66603Y-10853D01*
X66233Y-10605D01*
D02*
G37*
G36*
X64233D02*
X63863Y-10853D01*
X63616Y-11222D01*
X64233D01*
Y-10605D01*
D02*
G37*
G36*
X-54767D02*
Y-11222D01*
X-54150D01*
X-54397Y-10853D01*
X-54767Y-10605D01*
D02*
G37*
G36*
X-56767D02*
X-57137Y-10853D01*
X-57384Y-11222D01*
X-56767D01*
Y-10605D01*
D02*
G37*
G36*
X35233Y-11105D02*
Y-11722D01*
X35850D01*
X35603Y-11353D01*
X35233Y-11105D01*
D02*
G37*
G36*
X33233D02*
X32863Y-11353D01*
X32616Y-11722D01*
X33233D01*
Y-11105D01*
D02*
G37*
G36*
X50233Y-12105D02*
Y-12722D01*
X50850D01*
X50603Y-12353D01*
X50233Y-12105D01*
D02*
G37*
G36*
X48233D02*
X47863Y-12353D01*
X47616Y-12722D01*
X48233D01*
Y-12105D01*
D02*
G37*
G36*
X66850Y-13222D02*
X66233D01*
Y-13839D01*
X66603Y-13592D01*
X66850Y-13222D01*
D02*
G37*
G36*
X64233D02*
X63616D01*
X63863Y-13592D01*
X64233Y-13839D01*
Y-13222D01*
D02*
G37*
G36*
X-54150D02*
X-54767D01*
Y-13839D01*
X-54397Y-13592D01*
X-54150Y-13222D01*
D02*
G37*
G36*
X-56767D02*
X-57384D01*
X-57137Y-13592D01*
X-56767Y-13839D01*
Y-13222D01*
D02*
G37*
G36*
X-38767Y-13605D02*
Y-14222D01*
X-38150D01*
X-38397Y-13852D01*
X-38767Y-13605D01*
D02*
G37*
G36*
X-40767D02*
X-41137Y-13852D01*
X-41384Y-14222D01*
X-40767D01*
Y-13605D01*
D02*
G37*
G36*
X35850Y-13722D02*
X35233D01*
Y-14339D01*
X35603Y-14092D01*
X35850Y-13722D01*
D02*
G37*
G36*
X33233D02*
X32616D01*
X32863Y-14092D01*
X33233Y-14339D01*
Y-13722D01*
D02*
G37*
G36*
X50850Y-14722D02*
X50233D01*
Y-15339D01*
X50603Y-15092D01*
X50850Y-14722D01*
D02*
G37*
G36*
X48233D02*
X47616D01*
X47863Y-15092D01*
X48233Y-15339D01*
Y-14722D01*
D02*
G37*
G36*
X-38150Y-16222D02*
X-38767D01*
Y-16839D01*
X-38397Y-16592D01*
X-38150Y-16222D01*
D02*
G37*
G36*
X-40767D02*
X-41384D01*
X-41137Y-16592D01*
X-40767Y-16839D01*
Y-16222D01*
D02*
G37*
G36*
X-25767Y-18105D02*
Y-18722D01*
X-25150D01*
X-25397Y-18352D01*
X-25767Y-18105D01*
D02*
G37*
G36*
X-27767D02*
X-28137Y-18352D01*
X-28384Y-18722D01*
X-27767D01*
Y-18105D01*
D02*
G37*
G36*
X75733Y-20105D02*
Y-20722D01*
X76350D01*
X76103Y-20353D01*
X75733Y-20105D01*
D02*
G37*
G36*
X73733D02*
X73363Y-20353D01*
X73116Y-20722D01*
X73733D01*
Y-20105D01*
D02*
G37*
G36*
X-25150Y-20722D02*
X-25767D01*
Y-21339D01*
X-25397Y-21092D01*
X-25150Y-20722D01*
D02*
G37*
G36*
X-27767D02*
X-28384D01*
X-28137Y-21092D01*
X-27767Y-21339D01*
Y-20722D01*
D02*
G37*
G36*
X57733Y-22105D02*
Y-22722D01*
X58350D01*
X58103Y-22353D01*
X57733Y-22105D01*
D02*
G37*
G36*
X55733D02*
X55363Y-22353D01*
X55116Y-22722D01*
X55733D01*
Y-22105D01*
D02*
G37*
G36*
X76350Y-22722D02*
X75733D01*
Y-23339D01*
X76103Y-23092D01*
X76350Y-22722D01*
D02*
G37*
G36*
X73733D02*
X73116D01*
X73363Y-23092D01*
X73733Y-23339D01*
Y-22722D01*
D02*
G37*
G36*
X38733Y-23605D02*
Y-24222D01*
X39350D01*
X39103Y-23853D01*
X38733Y-23605D01*
D02*
G37*
G36*
X36733D02*
X36363Y-23853D01*
X36116Y-24222D01*
X36733D01*
Y-23605D01*
D02*
G37*
G36*
X-46767Y-24105D02*
Y-24722D01*
X-46150D01*
X-46397Y-24352D01*
X-46767Y-24105D01*
D02*
G37*
G36*
X-48767D02*
X-49137Y-24352D01*
X-49384Y-24722D01*
X-48767D01*
Y-24105D01*
D02*
G37*
G36*
X58350Y-24722D02*
X57733D01*
Y-25339D01*
X58103Y-25092D01*
X58350Y-24722D01*
D02*
G37*
G36*
X55733D02*
X55116D01*
X55363Y-25092D01*
X55733Y-25339D01*
Y-24722D01*
D02*
G37*
G36*
X39350Y-26222D02*
X38733D01*
Y-26839D01*
X39103Y-26592D01*
X39350Y-26222D01*
D02*
G37*
G36*
X36733D02*
X36116D01*
X36363Y-26592D01*
X36733Y-26839D01*
Y-26222D01*
D02*
G37*
G36*
X-46150Y-26722D02*
X-46767D01*
Y-27339D01*
X-46397Y-27092D01*
X-46150Y-26722D01*
D02*
G37*
G36*
X-48767D02*
X-49384D01*
X-49137Y-27092D01*
X-48767Y-27339D01*
Y-26722D01*
D02*
G37*
G36*
X-12267Y-27105D02*
Y-27722D01*
X-11650D01*
X-11897Y-27352D01*
X-12267Y-27105D01*
D02*
G37*
G36*
X-14267D02*
X-14637Y-27352D01*
X-14884Y-27722D01*
X-14267D01*
Y-27105D01*
D02*
G37*
G36*
X-72767D02*
Y-27722D01*
X-72150D01*
X-72397Y-27352D01*
X-72767Y-27105D01*
D02*
G37*
G36*
X-74767D02*
X-75137Y-27352D01*
X-75384Y-27722D01*
X-74767D01*
Y-27105D01*
D02*
G37*
G36*
X-11650Y-29722D02*
X-12267D01*
Y-30339D01*
X-11897Y-30092D01*
X-11650Y-29722D01*
D02*
G37*
G36*
X-14267D02*
X-14884D01*
X-14637Y-30092D01*
X-14267Y-30339D01*
Y-29722D01*
D02*
G37*
G36*
X-72150D02*
X-72767D01*
Y-30339D01*
X-72397Y-30092D01*
X-72150Y-29722D01*
D02*
G37*
G36*
X-74767D02*
X-75384D01*
X-75137Y-30092D01*
X-74767Y-30339D01*
Y-29722D01*
D02*
G37*
G36*
X24233Y-31605D02*
Y-32222D01*
X24850D01*
X24603Y-31852D01*
X24233Y-31605D01*
D02*
G37*
G36*
X22233D02*
X21863Y-31852D01*
X21616Y-32222D01*
X22233D01*
Y-31605D01*
D02*
G37*
G36*
X-44767D02*
Y-32222D01*
X-44150D01*
X-44397Y-31852D01*
X-44767Y-31605D01*
D02*
G37*
G36*
X-46767D02*
X-47137Y-31852D01*
X-47384Y-32222D01*
X-46767D01*
Y-31605D01*
D02*
G37*
G36*
X8733Y-32605D02*
Y-33222D01*
X9350D01*
X9103Y-32853D01*
X8733Y-32605D01*
D02*
G37*
G36*
X6733D02*
X6363Y-32853D01*
X6116Y-33222D01*
X6733D01*
Y-32605D01*
D02*
G37*
G36*
X73733Y-34105D02*
Y-34722D01*
X74350D01*
X74103Y-34352D01*
X73733Y-34105D01*
D02*
G37*
G36*
X71733D02*
X71363Y-34352D01*
X71116Y-34722D01*
X71733D01*
Y-34105D01*
D02*
G37*
G36*
X24850Y-34222D02*
X24233D01*
Y-34839D01*
X24603Y-34592D01*
X24850Y-34222D01*
D02*
G37*
G36*
X22233D02*
X21616D01*
X21863Y-34592D01*
X22233Y-34839D01*
Y-34222D01*
D02*
G37*
G36*
X-44150D02*
X-44767D01*
Y-34839D01*
X-44397Y-34592D01*
X-44150Y-34222D01*
D02*
G37*
G36*
X-46767D02*
X-47384D01*
X-47137Y-34592D01*
X-46767Y-34839D01*
Y-34222D01*
D02*
G37*
G36*
X9350Y-35222D02*
X8733D01*
Y-35839D01*
X9103Y-35592D01*
X9350Y-35222D01*
D02*
G37*
G36*
X6733D02*
X6116D01*
X6363Y-35592D01*
X6733Y-35839D01*
Y-35222D01*
D02*
G37*
G36*
X74350Y-36722D02*
X73733D01*
Y-37339D01*
X74103Y-37092D01*
X74350Y-36722D01*
D02*
G37*
G36*
X71733D02*
X71116D01*
X71363Y-37092D01*
X71733Y-37339D01*
Y-36722D01*
D02*
G37*
G36*
X58233Y-37605D02*
Y-38222D01*
X58850D01*
X58603Y-37852D01*
X58233Y-37605D01*
D02*
G37*
G36*
X56233D02*
X55863Y-37852D01*
X55616Y-38222D01*
X56233D01*
Y-37605D01*
D02*
G37*
G36*
X3733Y-38105D02*
Y-38722D01*
X4350D01*
X4103Y-38353D01*
X3733Y-38105D01*
D02*
G37*
G36*
X1733D02*
X1363Y-38353D01*
X1116Y-38722D01*
X1733D01*
Y-38105D01*
D02*
G37*
G36*
X-62100Y-35039D02*
X-62966Y-35096D01*
X-63744Y-35480D01*
X-64316Y-36132D01*
X-65194Y-37653D01*
X-63112Y-38855D01*
X-61122Y-35408D01*
X-61279Y-35318D01*
X-62100Y-35039D01*
D02*
G37*
G36*
X42733Y-38605D02*
Y-39222D01*
X43350D01*
X43103Y-38853D01*
X42733Y-38605D01*
D02*
G37*
G36*
X40733D02*
X40363Y-38853D01*
X40116Y-39222D01*
X40733D01*
Y-38605D01*
D02*
G37*
G36*
X58850Y-40222D02*
X58233D01*
Y-40839D01*
X58603Y-40592D01*
X58850Y-40222D01*
D02*
G37*
G36*
X56233D02*
X55616D01*
X55863Y-40592D01*
X56233Y-40839D01*
Y-40222D01*
D02*
G37*
G36*
X-59390Y-36408D02*
X-61380Y-39855D01*
X-59297Y-41058D01*
X-58419Y-39537D01*
X-58140Y-38715D01*
X-58197Y-37849D01*
X-58581Y-37071D01*
X-59233Y-36499D01*
X-59390Y-36408D01*
D02*
G37*
G36*
X4350Y-40722D02*
X3733D01*
Y-41339D01*
X4103Y-41092D01*
X4350Y-40722D01*
D02*
G37*
G36*
X1733D02*
X1116D01*
X1363Y-41092D01*
X1733Y-41339D01*
Y-40722D01*
D02*
G37*
G36*
X-20267Y-41105D02*
Y-41722D01*
X-19650D01*
X-19897Y-41352D01*
X-20267Y-41105D01*
D02*
G37*
G36*
X-22267D02*
X-22637Y-41352D01*
X-22884Y-41722D01*
X-22267D01*
Y-41105D01*
D02*
G37*
G36*
X43350Y-41222D02*
X42733D01*
Y-41839D01*
X43103Y-41592D01*
X43350Y-41222D01*
D02*
G37*
G36*
X40733D02*
X40116D01*
X40363Y-41592D01*
X40733Y-41839D01*
Y-41222D01*
D02*
G37*
G36*
X-66194Y-39385D02*
X-67072Y-40905D01*
X-67351Y-41727D01*
X-67295Y-42593D01*
X-66911Y-43371D01*
X-66259Y-43943D01*
X-66102Y-44034D01*
X-64112Y-40587D01*
X-66194Y-39385D01*
D02*
G37*
G36*
X-19650Y-43722D02*
X-20267D01*
Y-44339D01*
X-19897Y-44092D01*
X-19650Y-43722D01*
D02*
G37*
G36*
X-22267D02*
X-22884D01*
X-22637Y-44092D01*
X-22267Y-44339D01*
Y-43722D01*
D02*
G37*
G36*
X21733Y-44105D02*
Y-44722D01*
X22350D01*
X22103Y-44352D01*
X21733Y-44105D01*
D02*
G37*
G36*
X19733D02*
X19363Y-44352D01*
X19116Y-44722D01*
X19733D01*
Y-44105D01*
D02*
G37*
G36*
X-62380Y-41587D02*
X-64370Y-45034D01*
X-64213Y-45124D01*
X-63391Y-45403D01*
X-62525Y-45346D01*
X-61747Y-44963D01*
X-61175Y-44310D01*
X-60297Y-42790D01*
X-62380Y-41587D01*
D02*
G37*
G36*
X-22267Y-46105D02*
Y-46722D01*
X-21650D01*
X-21897Y-46352D01*
X-22267Y-46105D01*
D02*
G37*
G36*
X-24267D02*
X-24637Y-46352D01*
X-24884Y-46722D01*
X-24267D01*
Y-46105D01*
D02*
G37*
G36*
X22350Y-46722D02*
X21733D01*
Y-47339D01*
X22103Y-47092D01*
X22350Y-46722D01*
D02*
G37*
G36*
X19733D02*
X19116D01*
X19363Y-47092D01*
X19733Y-47339D01*
Y-46722D01*
D02*
G37*
G36*
X-55499Y-39257D02*
X-56207Y-39303D01*
X-56842Y-39617D01*
X-57309Y-40149D01*
X-60065Y-44923D01*
X-60293Y-45594D01*
X-60246Y-46301D01*
X-59933Y-46936D01*
X-59400Y-47403D01*
X-57355Y-48584D01*
X-56684Y-48812D01*
X-55977Y-48766D01*
X-55341Y-48452D01*
X-54874Y-47920D01*
X-52118Y-43146D01*
X-51890Y-42475D01*
X-51937Y-41768D01*
X-52250Y-41133D01*
X-52783Y-40666D01*
X-54828Y-39485D01*
X-55499Y-39257D01*
D02*
G37*
G36*
X-21650Y-48722D02*
X-22267D01*
Y-49339D01*
X-21897Y-49092D01*
X-21650Y-48722D01*
D02*
G37*
G36*
X-24267D02*
X-24884D01*
X-24637Y-49092D01*
X-24267Y-49339D01*
Y-48722D01*
D02*
G37*
G36*
X9733Y-50105D02*
Y-50722D01*
X10350D01*
X10103Y-50353D01*
X9733Y-50105D01*
D02*
G37*
G36*
X7733D02*
X7363Y-50353D01*
X7116Y-50722D01*
X7733D01*
Y-50105D01*
D02*
G37*
G36*
X34733Y-50605D02*
Y-51222D01*
X35350D01*
X35103Y-50853D01*
X34733Y-50605D01*
D02*
G37*
G36*
X32733D02*
X32363Y-50853D01*
X32116Y-51222D01*
X32733D01*
Y-50605D01*
D02*
G37*
G36*
X57733Y-51605D02*
Y-52222D01*
X58350D01*
X58103Y-51853D01*
X57733Y-51605D01*
D02*
G37*
G36*
X55733D02*
X55363Y-51853D01*
X55116Y-52222D01*
X55733D01*
Y-51605D01*
D02*
G37*
G36*
X-48685Y-43182D02*
X-49392Y-43228D01*
X-50028Y-43542D01*
X-50495Y-44074D01*
X-53251Y-48848D01*
X-53478Y-49519D01*
X-53432Y-50226D01*
X-53119Y-50861D01*
X-52586Y-51328D01*
X-50540Y-52509D01*
X-49869Y-52737D01*
X-49162Y-52691D01*
X-48527Y-52377D01*
X-48060Y-51845D01*
X-45304Y-47071D01*
X-45076Y-46400D01*
X-45122Y-45693D01*
X-45436Y-45058D01*
X-45968Y-44591D01*
X-48014Y-43410D01*
X-48685Y-43182D01*
D02*
G37*
G36*
X10350Y-52722D02*
X9733D01*
Y-53339D01*
X10103Y-53092D01*
X10350Y-52722D01*
D02*
G37*
G36*
X7733D02*
X7116D01*
X7363Y-53092D01*
X7733Y-53339D01*
Y-52722D01*
D02*
G37*
G36*
X-767Y-53105D02*
Y-53722D01*
X-150D01*
X-397Y-53352D01*
X-767Y-53105D01*
D02*
G37*
G36*
X-2767D02*
X-3137Y-53352D01*
X-3384Y-53722D01*
X-2767D01*
Y-53105D01*
D02*
G37*
G36*
X35350Y-53222D02*
X34733D01*
Y-53839D01*
X35103Y-53592D01*
X35350Y-53222D01*
D02*
G37*
G36*
X32733D02*
X32116D01*
X32363Y-53592D01*
X32733Y-53839D01*
Y-53222D01*
D02*
G37*
G36*
X44733Y-53605D02*
Y-54222D01*
X45350D01*
X45103Y-53852D01*
X44733Y-53605D01*
D02*
G37*
G36*
X42733D02*
X42363Y-53852D01*
X42116Y-54222D01*
X42733D01*
Y-53605D01*
D02*
G37*
G36*
X58350Y-54222D02*
X57733D01*
Y-54839D01*
X58103Y-54592D01*
X58350Y-54222D01*
D02*
G37*
G36*
X55733D02*
X55116D01*
X55363Y-54592D01*
X55733Y-54839D01*
Y-54222D01*
D02*
G37*
G36*
X-150Y-55722D02*
X-767D01*
Y-56339D01*
X-397Y-56092D01*
X-150Y-55722D01*
D02*
G37*
G36*
X-2767D02*
X-3384D01*
X-3137Y-56092D01*
X-2767Y-56339D01*
Y-55722D01*
D02*
G37*
G36*
X-41980Y-47134D02*
X-42687Y-47181D01*
X-43322Y-47494D01*
X-43789Y-48027D01*
X-46545Y-52800D01*
X-46773Y-53471D01*
X-46727Y-54178D01*
X-46413Y-54813D01*
X-45881Y-55281D01*
X-43835Y-56462D01*
X-43164Y-56690D01*
X-42457Y-56643D01*
X-41821Y-56330D01*
X-41354Y-55797D01*
X-38598Y-51024D01*
X-38370Y-50353D01*
X-38417Y-49646D01*
X-38730Y-49010D01*
X-39263Y-48543D01*
X-41309Y-47362D01*
X-41980Y-47134D01*
D02*
G37*
G36*
X45350Y-56222D02*
X44733D01*
Y-56839D01*
X45103Y-56592D01*
X45350Y-56222D01*
D02*
G37*
G36*
X42733D02*
X42116D01*
X42363Y-56592D01*
X42733Y-56839D01*
Y-56222D01*
D02*
G37*
G36*
X-49267Y-57105D02*
Y-57722D01*
X-48650D01*
X-48897Y-57353D01*
X-49267Y-57105D01*
D02*
G37*
G36*
X-51267D02*
X-51637Y-57353D01*
X-51884Y-57722D01*
X-51267D01*
Y-57105D01*
D02*
G37*
G36*
X-48650Y-59722D02*
X-49267D01*
Y-60339D01*
X-48897Y-60092D01*
X-48650Y-59722D01*
D02*
G37*
G36*
X-51267D02*
X-51884D01*
X-51637Y-60092D01*
X-51267Y-60339D01*
Y-59722D01*
D02*
G37*
G36*
X-35151Y-51076D02*
X-35858Y-51123D01*
X-36493Y-51436D01*
X-36960Y-51969D01*
X-39716Y-56742D01*
X-39944Y-57413D01*
X-39898Y-58120D01*
X-39584Y-58756D01*
X-39051Y-59223D01*
X-37006Y-60404D01*
X-36335Y-60632D01*
X-35628Y-60585D01*
X-34992Y-60272D01*
X-34525Y-59739D01*
X-31769Y-54966D01*
X-31541Y-54295D01*
X-31588Y-53588D01*
X-31901Y-52952D01*
X-32434Y-52485D01*
X-34480Y-51304D01*
X-35151Y-51076D01*
D02*
G37*
G36*
X-40267Y-60605D02*
Y-61222D01*
X-39650D01*
X-39897Y-60852D01*
X-40267Y-60605D01*
D02*
G37*
G36*
X-42267D02*
X-42637Y-60852D01*
X-42884Y-61222D01*
X-42267D01*
Y-60605D01*
D02*
G37*
G36*
X16733Y-61105D02*
Y-61722D01*
X17350D01*
X17103Y-61352D01*
X16733Y-61105D01*
D02*
G37*
G36*
X14733D02*
X14363Y-61352D01*
X14116Y-61722D01*
X14733D01*
Y-61105D01*
D02*
G37*
G36*
X6032Y-61540D02*
Y-62157D01*
X6649D01*
X6402Y-61787D01*
X6032Y-61540D01*
D02*
G37*
G36*
X4032D02*
X3662Y-61787D01*
X3415Y-62157D01*
X4032D01*
Y-61540D01*
D02*
G37*
G36*
X-39650Y-63222D02*
X-40267D01*
Y-63839D01*
X-39897Y-63592D01*
X-39650Y-63222D01*
D02*
G37*
G36*
X-42267D02*
X-42884D01*
X-42637Y-63592D01*
X-42267Y-63839D01*
Y-63222D01*
D02*
G37*
G36*
X17350Y-63722D02*
X16733D01*
Y-64339D01*
X17103Y-64092D01*
X17350Y-63722D01*
D02*
G37*
G36*
X14733D02*
X14116D01*
X14363Y-64092D01*
X14733Y-64339D01*
Y-63722D01*
D02*
G37*
G36*
X-28318Y-54990D02*
X-29026Y-55037D01*
X-29661Y-55350D01*
X-30128Y-55883D01*
X-32884Y-60656D01*
X-33112Y-61327D01*
X-33066Y-62034D01*
X-32752Y-62670D01*
X-32219Y-63137D01*
X-30174Y-64318D01*
X-29503Y-64546D01*
X-28796Y-64499D01*
X-28160Y-64186D01*
X-27693Y-63653D01*
X-24937Y-58880D01*
X-24709Y-58209D01*
X-24756Y-57502D01*
X-25069Y-56867D01*
X-25602Y-56399D01*
X-27648Y-55218D01*
X-28318Y-54990D01*
D02*
G37*
G36*
X6649Y-64157D02*
X6032D01*
Y-64774D01*
X6402Y-64527D01*
X6649Y-64157D01*
D02*
G37*
G36*
X4032D02*
X3415D01*
X3662Y-64527D01*
X4032Y-64774D01*
Y-64157D01*
D02*
G37*
G36*
X-32267Y-66105D02*
Y-66722D01*
X-31650D01*
X-31897Y-66352D01*
X-32267Y-66105D01*
D02*
G37*
G36*
X-34267D02*
X-34637Y-66352D01*
X-34884Y-66722D01*
X-34267D01*
Y-66105D01*
D02*
G37*
G36*
X-21551Y-58901D02*
X-22258Y-58947D01*
X-22894Y-59260D01*
X-23361Y-59793D01*
X-26117Y-64567D01*
X-26345Y-65238D01*
X-26298Y-65945D01*
X-25985Y-66580D01*
X-25452Y-67047D01*
X-23407Y-68228D01*
X-22736Y-68456D01*
X-22029Y-68410D01*
X-21393Y-68096D01*
X-20926Y-67564D01*
X-18170Y-62790D01*
X-17942Y-62119D01*
X-17989Y-61412D01*
X-18302Y-60777D01*
X-18835Y-60310D01*
X-20880Y-59128D01*
X-21551Y-58901D01*
D02*
G37*
G36*
X-31650Y-68722D02*
X-32267D01*
Y-69339D01*
X-31897Y-69092D01*
X-31650Y-68722D01*
D02*
G37*
G36*
X-34267D02*
X-34884D01*
X-34637Y-69092D01*
X-34267Y-69339D01*
Y-68722D01*
D02*
G37*
G36*
X-7964Y-66281D02*
X-8830Y-66338D01*
X-9608Y-66721D01*
X-10180Y-67374D01*
X-11058Y-68895D01*
X-8975Y-70097D01*
X-6986Y-66650D01*
X-7142Y-66560D01*
X-7964Y-66281D01*
D02*
G37*
G36*
X26233Y-70105D02*
Y-70722D01*
X26850D01*
X26603Y-70353D01*
X26233Y-70105D01*
D02*
G37*
G36*
X24233D02*
X23863Y-70353D01*
X23616Y-70722D01*
X24233D01*
Y-70105D01*
D02*
G37*
G36*
X-23767Y-70605D02*
Y-71222D01*
X-23150D01*
X-23397Y-70853D01*
X-23767Y-70605D01*
D02*
G37*
G36*
X-25767D02*
X-26137Y-70853D01*
X-26384Y-71222D01*
X-25767D01*
Y-70605D01*
D02*
G37*
G36*
X-5254Y-67650D02*
X-7243Y-71097D01*
X-5161Y-72299D01*
X-4283Y-70779D01*
X-4004Y-69957D01*
X-4061Y-69091D01*
X-4444Y-68313D01*
X-5097Y-67741D01*
X-5254Y-67650D01*
D02*
G37*
G36*
X-14784Y-62812D02*
X-15491Y-62858D01*
X-16127Y-63172D01*
X-16594Y-63704D01*
X-19350Y-68478D01*
X-19578Y-69149D01*
X-19531Y-69856D01*
X-19218Y-70491D01*
X-18685Y-70959D01*
X-16640Y-72140D01*
X-15969Y-72367D01*
X-15262Y-72321D01*
X-14626Y-72008D01*
X-14159Y-71475D01*
X-11403Y-66702D01*
X-11175Y-66031D01*
X-11222Y-65324D01*
X-11535Y-64688D01*
X-12068Y-64221D01*
X-14113Y-63040D01*
X-14784Y-62812D01*
D02*
G37*
G36*
X5989Y-70817D02*
X4233D01*
Y-73222D01*
X8213D01*
Y-73041D01*
X8044Y-72190D01*
X7562Y-71469D01*
X6840Y-70987D01*
X5989Y-70817D01*
D02*
G37*
G36*
X2233D02*
X477D01*
X-374Y-70987D01*
X-1095Y-71469D01*
X-1577Y-72190D01*
X-1747Y-73041D01*
Y-73222D01*
X2233D01*
Y-70817D01*
D02*
G37*
G36*
X26850Y-72722D02*
X26233D01*
Y-73339D01*
X26603Y-73092D01*
X26850Y-72722D01*
D02*
G37*
G36*
X24233D02*
X23616D01*
X23863Y-73092D01*
X24233Y-73339D01*
Y-72722D01*
D02*
G37*
G36*
X-23150Y-73222D02*
X-23767D01*
Y-73839D01*
X-23397Y-73592D01*
X-23150Y-73222D01*
D02*
G37*
G36*
X-25767D02*
X-26384D01*
X-26137Y-73592D01*
X-25767Y-73839D01*
Y-73222D01*
D02*
G37*
G36*
X-12058Y-70627D02*
X-12936Y-72147D01*
X-13215Y-72969D01*
X-13158Y-73835D01*
X-12775Y-74613D01*
X-12122Y-75185D01*
X-11965Y-75276D01*
X-9975Y-71829D01*
X-12058Y-70627D01*
D02*
G37*
G36*
X-8243Y-72829D02*
X-10233Y-76276D01*
X-10076Y-76366D01*
X-9255Y-76645D01*
X-8389Y-76588D01*
X-7611Y-76205D01*
X-7039Y-75552D01*
X-6161Y-74032D01*
X-8243Y-72829D01*
D02*
G37*
G36*
X8213Y-75222D02*
X4233D01*
Y-77627D01*
X5989D01*
X6840Y-77458D01*
X7562Y-76976D01*
X8044Y-76254D01*
X8213Y-75403D01*
Y-75222D01*
D02*
G37*
G36*
X2233D02*
X-1747D01*
Y-75403D01*
X-1577Y-76254D01*
X-1095Y-76976D01*
X-374Y-77458D01*
X477Y-77627D01*
X2233D01*
Y-75222D01*
D02*
G37*
%LPD*%
D16*
X-29297Y-78947D02*
G03*
X-9297Y-83693I29297J78947D01*
G01*
X-1248Y-84199D02*
G03*
X-1177Y-84199I71J4724D01*
G01*
X-9285Y-83695D02*
G03*
X-1248Y-84199I9285J83695D01*
G01*
X8255Y-83802D02*
G03*
X8774Y-83722I-461J4702D01*
G01*
X8774D02*
G03*
X9286Y-83694I0J4724D01*
G01*
X1211Y-84199D02*
G03*
X8255Y-83802I-1211J84199D01*
G01*
X31716Y-78007D02*
G03*
X33284Y-76966I-1777J4377D01*
G01*
X21642Y-81379D02*
G03*
X31716Y-78007I-21642J81379D01*
G01*
X-46101Y-70468D02*
G03*
X-29356Y-78926I46101J70468D01*
G01*
X9286Y-83694D02*
G03*
X21642Y-81379I-9286J83694D01*
G01*
X-68838Y-32457D02*
G03*
X-71767Y-39528I7071J-7071D01*
G01*
X-56296Y-62624D02*
G03*
X-46101Y-70468I56296J62624D01*
G01*
X-71767Y-43330D02*
G03*
X-71691Y-44175I4724J-0D01*
G01*
Y-44175D02*
G03*
X-62624Y-56296I71691J44175D01*
G01*
X261Y84208D02*
G03*
X232Y84208I-336J-111292D01*
G01*
X32614Y77636D02*
G03*
X261Y84208I-32614J-77636D01*
G01*
X-81499Y21188D02*
G03*
X-82140Y18548I81499J-21188D01*
G01*
X-82140Y18548D02*
G03*
X-80895Y14187I4608J-1043D01*
G01*
D02*
G03*
X-80838Y14129I7128J7014D01*
G01*
X2129Y84181D02*
G03*
X-38520Y74881I-2129J-84181D01*
G01*
D02*
G03*
X-55632Y63215I38520J-74881D01*
G01*
D02*
G03*
X-71864Y43894I55632J-63215D01*
G01*
D02*
G03*
X-81499Y21188I71864J-43894D01*
G01*
X-1248Y-84199D02*
Y-84199D01*
X8774Y-83722D02*
Y-83722D01*
X8255Y-83802D02*
X8255Y-83802D01*
X-1177Y-84199D02*
X1211Y-84199D01*
X33284Y-76966D02*
X40354Y-69896D01*
X31716Y-78007D02*
X31716Y-78007D01*
X-29356Y-78926D02*
X-29356Y-78926D01*
X-29356Y-78926D02*
X-29297Y-78947D01*
X-68838Y-32457D02*
X-59052Y-22671D01*
X-62624Y-56296D02*
X-56296Y-62624D01*
X-71767Y-39528D02*
Y-39528D01*
X-71767Y-43330D02*
X-71767Y-39528D01*
X32614Y77636D02*
X40354Y69896D01*
X-80838Y14129D02*
X-77072Y10363D01*
X-64966Y-7622D02*
Y-5953D01*
X-77072Y10363D02*
X-64966Y-5953D01*
X-65477Y-18905D02*
X-64971Y-7728D01*
X-64966Y-7622D01*
X-80709Y0D02*
X-71901Y-15186D01*
D18*
X-73767Y-28722D02*
D03*
X-45767Y-33222D02*
D03*
X5032Y-63157D02*
D03*
X-24767Y-72222D02*
D03*
X-33267Y-67722D02*
D03*
X-41267Y-62222D02*
D03*
X-50267Y-58722D02*
D03*
X2733Y-39722D02*
D03*
X-13267Y-28722D02*
D03*
X-26767Y-19722D02*
D03*
X-23267Y-47722D02*
D03*
X-21267Y-42722D02*
D03*
X-34267Y17278D02*
D03*
X-61267Y5778D02*
D03*
X43733Y-55222D02*
D03*
X25233Y-71722D02*
D03*
X15733Y-62722D02*
D03*
X-1767Y-54722D02*
D03*
X8733Y-51722D02*
D03*
X7733Y-34222D02*
D03*
X20733Y-45722D02*
D03*
X33733Y-52222D02*
D03*
X56733Y-53222D02*
D03*
X72733Y-35722D02*
D03*
X57233Y-39222D02*
D03*
X41733Y-40222D02*
D03*
X23233Y-33222D02*
D03*
X37733Y-25222D02*
D03*
X56733Y-23722D02*
D03*
X74733Y-21722D02*
D03*
X76733Y-1222D02*
D03*
X65233Y-12222D02*
D03*
X49233Y-13722D02*
D03*
X34233Y-12722D02*
D03*
X39233Y278D02*
D03*
X51733Y7778D02*
D03*
X70733Y7278D02*
D03*
X79233Y10778D02*
D03*
X73733Y24778D02*
D03*
X57233Y29778D02*
D03*
X45233Y21278D02*
D03*
X28233Y20278D02*
D03*
X6233Y32278D02*
D03*
X32233D02*
D03*
X21733Y40278D02*
D03*
X46733Y42278D02*
D03*
X62233Y48278D02*
D03*
X51233Y57278D02*
D03*
X34233Y57778D02*
D03*
X21233Y52778D02*
D03*
X10733Y64278D02*
D03*
X26733Y71278D02*
D03*
X9233Y76278D02*
D03*
X-6767Y72778D02*
D03*
X-22267Y68278D02*
D03*
X-4767Y55278D02*
D03*
X6733Y44778D02*
D03*
X-10267Y37778D02*
D03*
X-20767Y50278D02*
D03*
X-34767Y61778D02*
D03*
X-25767Y29778D02*
D03*
X-37267Y43778D02*
D03*
X-53267Y50778D02*
D03*
X-52767Y30778D02*
D03*
X-42267Y21778D02*
D03*
X-39267Y3778D02*
D03*
X-39767Y-15222D02*
D03*
X-47767Y-25722D02*
D03*
X-55767Y-12222D02*
D03*
X-49267Y-222D02*
D03*
X-71267Y21278D02*
D03*
X-57267Y15778D02*
D03*
X-62267Y35778D02*
D03*
X-59052Y-22671D02*
D03*
X-65477Y-18905D02*
D03*
X-71901Y-15186D02*
D03*
X-8609Y-71463D02*
D03*
X-15376Y-67590D02*
D03*
X-22143Y-63678D02*
D03*
X-28911Y-59768D02*
D03*
X-35743Y-55854D02*
D03*
X-42572Y-51912D02*
D03*
X-49277Y-47960D02*
D03*
X-56091Y-44034D02*
D03*
D19*
X-80709Y0D02*
D03*
X40354Y69896D02*
D03*
Y-69896D02*
D03*
D20*
X-65477Y-18905D02*
D03*
X-71901Y-15186D02*
D03*
X-59052Y-22671D02*
D03*
X-49277Y-47960D02*
D03*
X-56091Y-44034D02*
D03*
X-42572Y-51912D02*
D03*
X-62746Y-40221D02*
D03*
X-15376Y-67590D02*
D03*
X-22143Y-63678D02*
D03*
X-28911Y-59768D02*
D03*
X-35743Y-55854D02*
D03*
X-8609Y-71463D02*
D03*
D21*
X3233Y-74222D02*
D03*
M02*
